<?xml version="1.0" standalone="no"?>
<svg xmlns="http://www.w3.org/2000/svg" height="1920pt" preserveAspectRatio="xMidYMid meet" viewBox="0 0 1144 1920" width="1144pt">
  <path d="m5280 19194c-742-21-1373-68-2010-150-961-123-1431-208-1877-339-329-97-647-236-842-366-169-113-316-268-386-406-61-121-74-192-85-443-5-124-21-364-35-535-35-435-48-715-40-895 22-528 127-801 409-1066 50-48 145-122 211-166l120-81 37-121c110-363 296-780 497-1116 226-376 452-663 780-991 358-357 606-549 1158-895 542-339 829-574 1091-892 176-213 306-482 347-716 19-114 19-307-1-427-59-351-275-721-624-1069-250-250-455-409-1145-890-449-312-672-488-884-694-510-498-910-1174-1176-1986-71-217-148-509-186-700l-23-115-83-78c-135-128-214-265-293-507-135-411-180-982-124-1570 43-462 116-712 263-907 378-501 1313-826 2786-967 412-40 844-62 1450-75 2240-49 2972-39 3800 54 1235 139 2102 457 2605 955 124 122 169 187 218 311 152 382 199 1077 116 1714-53 407-174 766-306 908l-49 52 5-133c2-72 3-132 2-132s-17 21-34 48l-30 47 14 60c18 80 18 299-1 411-22 130-67 301-141 534-249 782-602 1378-1134 1911-379 379-730 635-1344 979-483 270-746 452-980 679-402 392-581 839-537 1349 45 525 253 909 681 1258 174 142 327 243 800 529 607 366 874 567 1235 929 421 423 745 885 993 1421 123 264 276 681 332 903 13 48 20 56 84 104 233 173 368 386 391 621 4 34 17 130 31 212 54 341 80 739 70 1120-9 390-41 646-108 855-190 599-908 993-2183 1200-441 72-1586 189-2240 230-433 27-1266 44-1625 34zm5145-4581c-13-55-99-282-157-418-310-726-773-1338-1373-1819-264-212-383-290-860-566-590-342-787-474-1007-676-315-289-483-588-544-969-21-134-30-512-15-641 39-329 147-626 324-891 106-158 181-248 341-409 263-262 523-459 1172-887 674-444 958-661 1249-952 238-238 369-412 547-730 302-539 467-946 513-1270 16-106 20-279 8-273-5 2-71 35-148 73-77 37-141 71-143 75-1 4-24 44-50 89-98 169-287 365-575 596-271 218-512 379-1152 770-667 407-935 592-1139 786-59 57-214 218-344 358-481 522-718 736-972 878-91 51-230 101-323 117-88 16-307 20-307 7 0-4-24-13-52-20-139-35-309-121-462-235-194-142-371-315-686-667-276-309-396-434-499-521-94-79-433-308-796-538-514-326-953-634-1225-860-161-133-367-340-453-455-67-89-167-271-167-304 0-16-94-71-121-71-44 0 146 646 296 1004 352 843 897 1547 1620 2091 61 45 263 189 450 320 545 381 736 530 964 750 379 368 572 716 625 1129 34 259 29 464-14 690-57 293-198 587-406 846-193 240-522 516-858 720-666 404-1002 656-1381 1035-385 385-669 779-901 1250-76 155-228 514-220 522 1 1 60-18 132-42 391-131 900-230 1554-305 250-28 1060-106 1290-125 1244-98 2485-79 3695 56 584 65 1316 173 1655 245 314 66 723 183 870 248 48 21 53 20 45-11zm-9836-10720c-23-42-26-24-10 60l16 82 3-60c2-34-2-69-9-82zm5061 8900c-447-10-948-53-1225-103-613-112-689-134-863-254-124-85-165-143-165-232 0-160 197-344 938-874 504-361 675-499 876-708 183-190 332-400 427-601l44-94 38 71c59 108 108 182 122 183 7 0 43 42 80 92 95 129 255 304 395 429 139 124 176 155 339 274 67 49 154 114 195 145 106 79 202 139 468 289 401 226 555 342 701 530 58 74 117 200 125 265 22 171-123 314-405 399-176 53-354 83-729 122-216 23-307 27-746 33-367 5-471 8-390 14 205 14 225 24 45 24-91-1-212-2-270-4zm-8-2970c-57-157-66-206-66-363-1-138 0-148 26-200 36-72 79-124 121-143 129-62 149 139 52 518-35 136-82 275-94 275-4 0-21-39-39-87z" transform="matrix(.1 0 0 -.1 0 1920)" fill="#4EDD69" stroke="none" stroke-width="2" vector-effect="non-scaling-stroke"/>
</svg>
